MasterSet_Kanji-w0.00.ufo
<glyph name="c1177" format="1">
	<advance width="1000"/>
	<outline>
		<contour>
			<point x="306" y="142" type="line"/>
			<point x="306" y="-14" type="line"/>
			<point x="306" y="-64"/>
			<point x="328" y="-72"/>
			<point x="407" y="-72" type="curve"/>
			<point x="424" y="-72"/>
			<point x="610" y="-72"/>
			<point x="628" y="-72" type="curve"/>
			<point x="698" y="-72"/>
			<point x="711" y="-47"/>
			<point x="716" y="67" type="curve"/>
			<point x="707" y="70"/>
			<point x="695" y="74"/>
			<point x="686" y="80" type="curve"/>
			<point x="682" y="-29"/>
			<point x="675" y="-42"/>
			<point x="626" y="-42" type="curve"/>
			<point x="588" y="-42"/>
			<point x="432" y="-42"/>
			<point x="405" y="-42" type="curve"/>
			<point x="346" y="-42"/>
			<point x="336" y="-37"/>
			<point x="336" y="-15" type="curve"/>
			<point x="336" y="142" type="line"/>
		</contour>
		<contour>
			<point x="399" y="176" type="line"/>
			<point x="464" y="146"/>
			<point x="538" y="99"/>
			<point x="575" y="62" type="curve"/>
			<point x="595" y="84" type="line"/>
			<point x="558" y="120"/>
			<point x="483" y="167"/>
			<point x="418" y="195" type="curve"/>
		</contour>
		<contour>
			<point x="738" y="131" type="line"/>
			<point x="814" y="82"/>
			<point x="897" y="7"/>
			<point x="935" y="-47" type="curve"/>
			<point x="958" y="-28" type="line"/>
			<point x="920" y="26"/>
			<point x="836" y="99"/>
			<point x="760" y="148" type="curve"/>
		</contour>
		<contour>
			<point x="203" y="143" type="line"/>
			<point x="175" y="75"/>
			<point x="125" y="3"/>
			<point x="48" y="-37" type="curve"/>
			<point x="72" y="-54" type="line"/>
			<point x="151" y="-12"/>
			<point x="198" y="62"/>
			<point x="229" y="133" type="curve"/>
		</contour>
		<contour>
			<point x="112" y="758" type="line"/>
			<point x="112" y="728" type="line"/>
			<point x="887" y="728" type="line"/>
			<point x="887" y="758" type="line"/>
		</contour>
		<contour>
			<point x="69" y="582" type="line"/>
			<point x="69" y="552" type="line"/>
			<point x="938" y="552" type="line"/>
			<point x="938" y="582" type="line"/>
		</contour>
		<contour>
			<point x="483" y="840" type="line"/>
			<point x="483" y="741" type="line"/>
			<point x="513" y="741" type="line"/>
			<point x="513" y="840" type="line"/>
		</contour>
		<contour>
			<point x="277" y="713" type="line"/>
			<point x="303" y="673"/>
			<point x="328" y="620"/>
			<point x="337" y="584" type="curve"/>
			<point x="366" y="596" type="line"/>
			<point x="356" y="631"/>
			<point x="331" y="684"/>
			<point x="304" y="723" type="curve"/>
		</contour>
		<contour>
			<point x="697" y="725" type="line"/>
			<point x="681" y="687"/>
			<point x="650" y="630"/>
			<point x="627" y="595" type="curve"/>
			<point x="654" y="583" type="line"/>
			<point x="678" y="619"/>
			<point x="704" y="667"/>
			<point x="727" y="713" type="curve"/>
		</contour>
		<contour>
			<point x="223" y="335" type="line"/>
			<point x="782" y="335" type="line"/>
			<point x="782" y="241" type="line"/>
			<point x="223" y="241" type="line"/>
		</contour>
		<contour>
			<point x="223" y="457" type="line"/>
			<point x="782" y="457" type="line"/>
			<point x="782" y="365" type="line"/>
			<point x="223" y="365" type="line"/>
		</contour>
		<contour>
			<point x="193" y="487" type="line"/>
			<point x="193" y="211" type="line"/>
			<point x="812" y="211" type="line"/>
			<point x="812" y="487" type="line"/>
		</contour>
	</outline>
</glyph>
<glyph name="c13498" format="1">
	<advance width="1000"/>
	<outline>
		<contour>
			<point x="52" y="26" type="line"/>
			<point x="54" y="-3" type="line"/>
			<point x="941" y="32" type="line"/>
			<point x="940" y="61" type="line"/>
		</contour>
		<contour>
			<point x="56" y="761" type="line"/>
			<point x="56" y="731" type="line"/>
			<point x="943" y="731" type="line"/>
			<point x="943" y="761" type="line"/>
		</contour>
		<contour>
			<point x="51" y="390" type="line"/>
			<point x="51" y="360" type="line"/>
			<point x="952" y="360" type="line"/>
			<point x="952" y="390" type="line"/>
		</contour>
		<contour>
			<point x="226" y="276" type="line"/>
			<point x="226" y="246" type="line"/>
			<point x="771" y="246" type="line"/>
			<point x="771" y="276" type="line"/>
		</contour>
		<contour>
			<point x="226" y="161" type="line"/>
			<point x="226" y="131" type="line"/>
			<point x="771" y="131" type="line"/>
			<point x="771" y="161" type="line"/>
		</contour>
		<contour>
			<point x="310" y="839" type="line"/>
			<point x="310" y="663" type="line"/>
			<point x="340" y="663" type="line"/>
			<point x="340" y="839" type="line"/>
		</contour>
		<contour>
			<point x="655" y="839" type="line"/>
			<point x="655" y="663" type="line"/>
			<point x="685" y="663" type="line"/>
			<point x="685" y="839" type="line"/>
		</contour>
		<contour>
			<point x="758" y="381" type="line"/>
			<point x="758" y="-83" type="line"/>
			<point x="788" y="-83" type="line"/>
			<point x="788" y="381" type="line"/>
		</contour>
		<contour>
			<point x="209" y="381" type="line"/>
			<point x="209" y="16" type="line"/>
			<point x="239" y="16" type="line"/>
			<point x="239" y="381" type="line"/>
		</contour>
		<contour>
			<point x="215" y="611" type="line"/>
			<point x="783" y="611" type="line"/>
			<point x="783" y="493" type="line"/>
			<point x="215" y="493" type="line"/>
		</contour>
		<contour>
			<point x="185" y="641" type="line"/>
			<point x="185" y="463" type="line"/>
			<point x="813" y="463" type="line"/>
			<point x="813" y="641" type="line"/>
		</contour>
	</outline>
</glyph>
<glyph name="c14872" format="1">
	<advance width="1000"/>
	<outline>
		<contour>
			<point x="95" y="355" type="line"/>
			<point x="95" y="325" type="line"/>
			<point x="501" y="325" type="line"/>
			<point x="501" y="355" type="line"/>
		</contour>
		<contour>
			<point x="538" y="621" type="line"/>
			<point x="538" y="591" type="line"/>
			<point x="935" y="591" type="line"/>
			<point x="935" y="621" type="line"/>
		</contour>
		<contour>
			<point x="613" y="842" type="line"/>
			<point x="588" y="761"/>
			<point x="544" y="684"/>
			<point x="490" y="631" type="curve"/>
			<point x="498" y="627"/>
			<point x="511" y="617"/>
			<point x="516" y="612" type="curve"/>
			<point x="568" y="667"/>
			<point x="616" y="749"/>
			<point x="643" y="836" type="curve"/>
		</contour>
		<contour>
			<point x="95" y="784" type="line"/>
			<point x="95" y="339" type="line"/>
			<point x="125" y="339" type="line"/>
			<point x="125" y="754" type="line"/>
			<point x="491" y="754" type="line"/>
			<point x="491" y="784" type="line"/>
		</contour>
		<contour>
			<point x="113" y="651" type="line"/>
			<point x="113" y="621" type="line"/>
			<point x="444" y="621" type="line"/>
			<point x="444" y="489" type="line"/>
			<point x="113" y="489" type="line"/>
			<point x="113" y="459" type="line"/>
			<point x="474" y="459" type="line"/>
			<point x="474" y="651" type="line"/>
		</contour>
		<contour>
			<point x="282" y="776" type="line"/>
			<point x="282" y="632" type="line"/>
			<point x="312" y="632" type="line"/>
			<point x="312" y="776" type="line"/>
		</contour>
		<contour>
			<point x="722" y="707" type="line"/>
			<point x="722" y="486" type="line"/>
			<point x="752" y="486" type="line"/>
			<point x="752" y="707" type="line"/>
		</contour>
		<contour>
			<point x="282" y="482" type="line"/>
			<point x="282" y="333" type="line"/>
			<point x="312" y="333" type="line"/>
			<point x="312" y="482" type="line"/>
		</contour>
		<contour>
			<point x="588" y="752" type="line"/>
			<point x="581" y="722" type="line"/>
			<point x="949" y="722" type="line"/>
			<point x="949" y="752" type="line"/>
		</contour>
		<contour>
			<point x="596" y="475" type="line"/>
			<point x="885" y="475" type="line"/>
			<point x="885" y="345" type="line"/>
			<point x="596" y="345" type="line"/>
		</contour>
		<contour>
			<point x="566" y="505" type="line"/>
			<point x="566" y="315" type="line"/>
			<point x="915" y="315" type="line"/>
			<point x="915" y="505" type="line"/>
		</contour>
		<contour>
			<point x="40" y="-15" type="line"/>
			<point x="40" y="-45" type="line"/>
			<point x="963" y="-45" type="line"/>
			<point x="963" y="-15" type="line"/>
		</contour>
		<contour>
			<point x="166" y="239" type="line"/>
			<point x="166" y="-31" type="line"/>
			<point x="196" y="-31" type="line"/>
			<point x="196" y="209" type="line"/>
			<point x="378" y="209" type="line"/>
			<point x="378" y="-31" type="line"/>
			<point x="408" y="-31" type="line"/>
			<point x="408" y="209" type="line"/>
			<point x="592" y="209" type="line"/>
			<point x="592" y="-31" type="line"/>
			<point x="622" y="-31" type="line"/>
			<point x="622" y="209" type="line"/>
			<point x="807" y="209" type="line"/>
			<point x="807" y="-31" type="line"/>
			<point x="837" y="-31" type="line"/>
			<point x="837" y="239" type="line"/>
		</contour>
	</outline>
</glyph>
<glyph name="c17290" format="1">
	<advance width="1000"/>
	<outline>
		<contour>
			<point x="326" y="793" type="line"/>
			<point x="326" y="513" type="line"/>
			<point x="326" y="466"/>
			<point x="342" y="458"/>
			<point x="401" y="458" type="curve"/>
			<point x="414" y="458"/>
			<point x="534" y="458"/>
			<point x="547" y="458" type="curve"/>
			<point x="596" y="458"/>
			<point x="606" y="478"/>
			<point x="610" y="560" type="curve"/>
			<point x="600" y="562"/>
			<point x="589" y="567"/>
			<point x="581" y="573" type="curve"/>
			<point x="578" y="498"/>
			<point x="573" y="488"/>
			<point x="544" y="488" type="curve"/>
			<point x="520" y="488"/>
			<point x="418" y="488"/>
			<point x="400" y="488" type="curve"/>
			<point x="362" y="488"/>
			<point x="356" y="492"/>
			<point x="356" y="513" type="curve"/>
			<point x="356" y="793" type="line"/>
		</contour>
		<contour>
			<point x="315" y="329" type="line"/>
			<point x="315" y="299" type="line"/>
			<point x="932" y="299" type="line"/>
			<point x="932" y="329" type="line"/>
		</contour>
		<contour>
			<point x="271" y="151" type="line"/>
			<point x="271" y="121" type="line"/>
			<point x="960" y="121" type="line"/>
			<point x="960" y="151" type="line"/>
		</contour>
		<contour>
			<point x="479" y="435" type="line"/>
			<point x="479" y="129" type="line"/>
			<point x="509" y="129" type="line"/>
			<point x="509" y="435" type="line"/>
		</contour>
		<contour>
			<point x="727" y="435" type="line"/>
			<point x="727" y="129" type="line"/>
			<point x="757" y="129" type="line"/>
			<point x="757" y="435" type="line"/>
		</contour>
		<contour>
			<point x="340" y="793" type="line"/>
			<point x="340" y="763" type="line"/>
			<point x="557" y="763" type="line"/>
			<point x="557" y="647" type="line"/>
			<point x="340" y="647" type="line"/>
			<point x="340" y="617" type="line"/>
			<point x="587" y="617" type="line"/>
			<point x="587" y="793" type="line"/>
		</contour>
		<contour>
			<point x="662" y="793" type="line"/>
			<point x="662" y="513" type="line"/>
			<point x="662" y="466"/>
			<point x="679" y="458"/>
			<point x="739" y="458" type="curve"/>
			<point x="751" y="458"/>
			<point x="876" y="458"/>
			<point x="890" y="458" type="curve"/>
			<point x="939" y="458"/>
			<point x="950" y="478"/>
			<point x="953" y="560" type="curve"/>
			<point x="944" y="562"/>
			<point x="932" y="566"/>
			<point x="924" y="573" type="curve"/>
			<point x="921" y="498"/>
			<point x="916" y="488"/>
			<point x="886" y="488" type="curve"/>
			<point x="861" y="488"/>
			<point x="756" y="488"/>
			<point x="738" y="488" type="curve"/>
			<point x="698" y="488"/>
			<point x="692" y="492"/>
			<point x="692" y="513" type="curve"/>
			<point x="692" y="793" type="line"/>
		</contour>
		<contour>
			<point x="676" y="793" type="line"/>
			<point x="676" y="763" type="line"/>
			<point x="893" y="763" type="line"/>
			<point x="893" y="647" type="line"/>
			<point x="676" y="647" type="line"/>
			<point x="676" y="617" type="line"/>
			<point x="923" y="617" type="line"/>
			<point x="923" y="793" type="line"/>
		</contour>
		<contour>
			<point x="499" y="79" type="line"/>
			<point x="447" y="25"/>
			<point x="356" y="-24"/>
			<point x="275" y="-57" type="curve"/>
			<point x="283" y="-62"/>
			<point x="294" y="-75"/>
			<point x="298" y="-81" type="curve"/>
			<point x="378" y="-45"/>
			<point x="472" y="11"/>
			<point x="528" y="69" type="curve"/>
		</contour>
		<contour>
			<point x="728" y="62" type="line"/>
			<point x="804" y="21"/>
			<point x="894" y="-41"/>
			<point x="940" y="-83" type="curve"/>
			<point x="962" y="-60" type="line"/>
			<point x="916" y="-18"/>
			<point x="825" y="42"/>
			<point x="750" y="81" type="curve"/>
		</contour>
		<contour>
			<point x="251" y="831" type="line"/>
			<point x="197" y="664"/>
			<point x="110" y="500"/>
			<point x="14" y="392" type="curve"/>
			<point x="21" y="386"/>
			<point x="32" y="374"/>
			<point x="36" y="368" type="curve"/>
			<point x="134" y="484"/>
			<point x="222" y="649"/>
			<point x="280" y="824" type="curve"/>
		</contour>
		<contour>
			<point x="167" y="610" type="line"/>
			<point x="167" y="-81" type="line"/>
			<point x="197" y="-81" type="line"/>
			<point x="197" y="637" type="line"/>
			<point x="196" y="639" type="line"/>
		</contour>
	</outline>
</glyph>
<glyph name="c17986" format="1">
	<advance width="1000"/>
	<outline>
		<contour>
			<point x="88" y="806" type="line"/>
			<point x="147" y="775"/>
			<point x="216" y="726"/>
			<point x="250" y="690" type="curve"/>
			<point x="269" y="715" type="line"/>
			<point x="235" y="750"/>
			<point x="166" y="797"/>
			<point x="107" y="827" type="curve"/>
		</contour>
		<contour>
			<point x="39" y="529" type="line"/>
			<point x="102" y="502"/>
			<point x="176" y="458"/>
			<point x="214" y="425" type="curve"/>
			<point x="231" y="451" type="line"/>
			<point x="194" y="484"/>
			<point x="120" y="526"/>
			<point x="56" y="551" type="curve"/>
		</contour>
		<contour>
			<point x="63" y="-46" type="curve"/>
			<point x="90" y="-65" type="line"/>
			<point x="137" y="23"/>
			<point x="196" y="156"/>
			<point x="237" y="260" type="curve"/>
			<point x="213" y="278" type="line"/>
			<point x="170" y="168"/>
			<point x="107" y="32"/>
		</contour>
		<contour>
			<point x="312" y="800" type="line"/>
			<point x="312" y="534" type="line"/>
			<point x="312" y="488"/>
			<point x="328" y="480"/>
			<point x="383" y="480" type="curve"/>
			<point x="395" y="480"/>
			<point x="505" y="480"/>
			<point x="518" y="480" type="curve"/>
			<point x="563" y="480"/>
			<point x="573" y="500"/>
			<point x="577" y="576" type="curve"/>
			<point x="567" y="579"/>
			<point x="556" y="582"/>
			<point x="548" y="589" type="curve"/>
			<point x="545" y="519"/>
			<point x="541" y="510"/>
			<point x="514" y="510" type="curve"/>
			<point x="492" y="510"/>
			<point x="399" y="510"/>
			<point x="383" y="510" type="curve"/>
			<point x="347" y="510"/>
			<point x="342" y="515"/>
			<point x="342" y="534" type="curve"/>
			<point x="342" y="800" type="line"/>
		</contour>
		<contour>
			<point x="285" y="341" type="line"/>
			<point x="285" y="311" type="line"/>
			<point x="929" y="311" type="line"/>
			<point x="929" y="341" type="line"/>
		</contour>
		<contour>
			<point x="244" y="154" type="line"/>
			<point x="244" y="124" type="line"/>
			<point x="960" y="124" type="line"/>
			<point x="960" y="154" type="line"/>
		</contour>
		<contour>
			<point x="457" y="456" type="line"/>
			<point x="457" y="141" type="line"/>
			<point x="487" y="141" type="line"/>
			<point x="487" y="456" type="line"/>
		</contour>
		<contour>
			<point x="713" y="456" type="line"/>
			<point x="713" y="141" type="line"/>
			<point x="743" y="141" type="line"/>
			<point x="743" y="456" type="line"/>
		</contour>
		<contour>
			<point x="326" y="800" type="line"/>
			<point x="326" y="770" type="line"/>
			<point x="534" y="770" type="line"/>
			<point x="534" y="660" type="line"/>
			<point x="326" y="660" type="line"/>
			<point x="326" y="630" type="line"/>
			<point x="564" y="630" type="line"/>
			<point x="564" y="800" type="line"/>
		</contour>
		<contour>
			<point x="636" y="800" type="line"/>
			<point x="636" y="536" type="line"/>
			<point x="636" y="488"/>
			<point x="653" y="480"/>
			<point x="714" y="480" type="curve"/>
			<point x="726" y="480"/>
			<point x="854" y="480"/>
			<point x="867" y="480" type="curve"/>
			<point x="916" y="480"/>
			<point x="927" y="500"/>
			<point x="931" y="577" type="curve"/>
			<point x="921" y="580"/>
			<point x="909" y="584"/>
			<point x="901" y="590" type="curve"/>
			<point x="899" y="520"/>
			<point x="894" y="510"/>
			<point x="864" y="510" type="curve"/>
			<point x="838" y="510"/>
			<point x="731" y="510"/>
			<point x="712" y="510" type="curve"/>
			<point x="672" y="510"/>
			<point x="666" y="515"/>
			<point x="666" y="535" type="curve"/>
			<point x="666" y="800" type="line"/>
		</contour>
		<contour>
			<point x="650" y="800" type="line"/>
			<point x="650" y="770" type="line"/>
			<point x="864" y="770" type="line"/>
			<point x="864" y="657" type="line"/>
			<point x="650" y="657" type="line"/>
			<point x="650" y="627" type="line"/>
			<point x="894" y="627" type="line"/>
			<point x="894" y="800" type="line"/>
		</contour>
		<contour>
			<point x="501" y="91" type="line"/>
			<point x="446" y="32"/>
			<point x="349" y="-22"/>
			<point x="263" y="-57" type="curve"/>
			<point x="271" y="-63"/>
			<point x="282" y="-75"/>
			<point x="286" y="-81" type="curve"/>
			<point x="371" y="-43"/>
			<point x="471" y="17"/>
			<point x="530" y="81" type="curve"/>
		</contour>
		<contour>
			<point x="660" y="74" type="line"/>
			<point x="748" y="29"/>
			<point x="857" y="-38"/>
			<point x="912" y="-80" type="curve"/>
			<point x="936" y="-59" type="line"/>
			<point x="878" y="-16"/>
			<point x="769" y="48"/>
			<point x="683" y="92" type="curve"/>
		</contour>
	</outline>
</glyph>
<glyph name="c18480" format="1">
	<advance width="1000"/>
	<outline>
		<contour>
			<point x="58" y="743" type="line"/>
			<point x="58" y="713" type="line"/>
			<point x="945" y="713" type="line"/>
			<point x="945" y="743" type="line"/>
		</contour>
		<contour>
			<point x="315" y="839" type="line"/>
			<point x="315" y="632" type="line"/>
			<point x="345" y="632" type="line"/>
			<point x="345" y="839" type="line"/>
		</contour>
		<contour>
			<point x="650" y="839" type="line"/>
			<point x="650" y="632" type="line"/>
			<point x="680" y="632" type="line"/>
			<point x="680" y="839" type="line"/>
		</contour>
		<contour>
			<point x="159" y="599" type="line"/>
			<point x="159" y="393" type="line"/>
			<point x="159" y="256"/>
			<point x="144" y="72"/>
			<point x="35" y="-64" type="curve"/>
			<point x="42" y="-67"/>
			<point x="54" y="-76"/>
			<point x="59" y="-82" type="curve"/>
			<point x="171" y="57"/>
			<point x="189" y="251"/>
			<point x="189" y="392" type="curve"/>
			<point x="189" y="599" type="line"/>
		</contour>
		<contour>
			<point x="170" y="599" type="line"/>
			<point x="170" y="569" type="line"/>
			<point x="840" y="569" type="line"/>
			<point x="840" y="416" type="line"/>
			<point x="170" y="416" type="line"/>
			<point x="170" y="386" type="line"/>
			<point x="870" y="386" type="line"/>
			<point x="870" y="599" type="line"/>
		</contour>
		<contour>
			<point x="339" y="350" type="line"/>
			<point x="339" y="7" type="line"/>
			<point x="339" y="-59"/>
			<point x="370" y="-71"/>
			<point x="475" y="-71" type="curve"/>
			<point x="498" y="-71"/>
			<point x="776" y="-71"/>
			<point x="800" y="-71" type="curve"/>
			<point x="896" y="-71"/>
			<point x="911" y="-40"/>
			<point x="919" y="83" type="curve"/>
			<point x="910" y="86"/>
			<point x="897" y="90"/>
			<point x="888" y="97" type="curve"/>
			<point x="882" y="-20"/>
			<point x="871" y="-41"/>
			<point x="802" y="-41" type="curve"/>
			<point x="746" y="-41"/>
			<point x="510" y="-41"/>
			<point x="469" y="-41" type="curve"/>
			<point x="385" y="-41"/>
			<point x="369" y="-30"/>
			<point x="369" y="7" type="curve"/>
			<point x="369" y="350" type="line"/>
		</contour>
		<contour>
			<point x="813" y="303" type="line"/>
			<point x="712" y="251"/>
			<point x="517" y="195"/>
			<point x="348" y="155" type="curve"/>
			<point x="352" y="148"/>
			<point x="357" y="138"/>
			<point x="360" y="131" type="curve"/>
			<point x="532" y="171"/>
			<point x="725" y="225"/>
			<point x="845" y="281" type="curve"/>
		</contour>
	</outline>
</glyph>
<glyph name="c19753" format="1">
	<advance width="1000"/>
	<outline>
		<contour>
			<point x="53" y="765" type="line"/>
			<point x="53" y="735" type="line"/>
			<point x="949" y="735" type="line"/>
			<point x="949" y="765" type="line"/>
		</contour>
		<contour>
			<point x="310" y="840" type="line"/>
			<point x="310" y="682" type="line"/>
			<point x="340" y="682" type="line"/>
			<point x="340" y="840" type="line"/>
		</contour>
		<contour>
			<point x="655" y="840" type="line"/>
			<point x="655" y="682" type="line"/>
			<point x="685" y="682" type="line"/>
			<point x="685" y="840" type="line"/>
		</contour>
		<contour>
			<point x="134" y="662" type="line"/>
			<point x="134" y="632" type="line"/>
			<point x="868" y="632" type="line"/>
			<point x="868" y="662" type="line"/>
		</contour>
		<contour>
			<point x="189" y="496" type="line"/>
			<point x="189" y="466" type="line"/>
			<point x="406" y="466" type="line"/>
			<point x="406" y="496" type="line"/>
		</contour>
		<contour>
			<point x="178" y="415" type="line"/>
			<point x="178" y="385" type="line"/>
			<point x="404" y="385" type="line"/>
			<point x="404" y="415" type="line"/>
		</contour>
		<contour>
			<point x="590" y="415" type="line"/>
			<point x="590" y="385" type="line"/>
			<point x="820" y="385" type="line"/>
			<point x="820" y="415" type="line"/>
		</contour>
		<contour>
			<point x="548" y="-24" type="line"/>
			<point x="548" y="-54" type="line"/>
			<point x="850" y="-54" type="line"/>
			<point x="850" y="-24" type="line"/>
		</contour>
		<contour>
			<point x="266" y="115" type="line"/>
			<point x="266" y="85" type="line"/>
			<point x="429" y="85" type="line"/>
			<point x="429" y="115" type="line"/>
		</contour>
		<contour>
			<point x="590" y="496" type="line"/>
			<point x="590" y="466" type="line"/>
			<point x="811" y="466" type="line"/>
			<point x="811" y="496" type="line"/>
		</contour>
		<contour>
			<point x="482" y="652" type="line"/>
			<point x="482" y="359" type="line"/>
			<point x="512" y="359" type="line"/>
			<point x="512" y="652" type="line"/>
		</contour>
		<contour>
			<point x="77" y="576" type="line"/>
			<point x="77" y="429" type="line"/>
			<point x="107" y="429" type="line"/>
			<point x="107" y="546" type="line"/>
			<point x="890" y="546" type="line"/>
			<point x="890" y="429" type="line"/>
			<point x="920" y="429" type="line"/>
			<point x="920" y="576" type="line"/>
		</contour>
		<contour>
			<point x="149" y="302" type="line"/>
			<point x="393" y="302" type="line"/>
			<point x="393" y="217" type="line"/>
			<point x="149" y="217" type="line"/>
		</contour>
		<contour>
			<point x="119" y="332" type="line"/>
			<point x="119" y="187" type="line"/>
			<point x="423" y="187" type="line"/>
			<point x="423" y="332" type="line"/>
		</contour>
		<contour>
			<point x="536" y="109" type="line"/>
			<point x="536" y="-80" type="line"/>
			<point x="566" y="-80" type="line"/>
			<point x="566" y="79" type="line"/>
			<point x="835" y="79" type="line"/>
			<point x="835" y="-78" type="line"/>
			<point x="865" y="-78" type="line"/>
			<point x="865" y="109" type="line"/>
		</contour>
		<contour>
			<point x="584" y="284" type="curve"/>
			<point x="558" y="272" type="line"/>
			<point x="635" y="188"/>
			<point x="795" y="123"/>
			<point x="942" y="96" type="curve"/>
			<point x="947" y="104"/>
			<point x="955" y="116"/>
			<point x="962" y="122" type="curve"/>
			<point x="815" y="145"/>
			<point x="657" y="206"/>
		</contour>
		<contour>
			<point x="628" y="371" type="line"/>
			<point x="595" y="316"/>
			<point x="530" y="254"/>
			<point x="442" y="208" type="curve"/>
			<point x="450" y="204"/>
			<point x="459" y="196"/>
			<point x="465" y="190" type="curve"/>
			<point x="556" y="241"/>
			<point x="620" y="304"/>
			<point x="660" y="366" type="curve"/>
		</contour>
		<contour>
			<point x="831" y="322" type="line"/>
			<point x="831" y="315" type="line"/>
			<point x="764" y="212"/>
			<point x="594" y="141"/>
			<point x="451" y="114" type="curve"/>
			<point x="457" y="107"/>
			<point x="465" y="97"/>
			<point x="469" y="89" type="curve"/>
			<point x="615" y="122"/>
			<point x="788" y="195"/>
			<point x="863" y="312" type="curve"/>
			<point x="844" y="324" type="line"/>
			<point x="838" y="322" type="line"/>
		</contour>
		<contour>
			<point x="61" y="-30" type="curve"/>
			<point x="67" y="-61" type="line"/>
			<point x="171" y="-48"/>
			<point x="319" y="-29"/>
			<point x="464" y="-10" type="curve"/>
			<point x="464" y="19" type="line"/>
			<point x="312" y="0"/>
			<point x="160" y="-19"/>
		</contour>
		<contour>
			<point x="603" y="322" type="line"/>
			<point x="582" y="292" type="line"/>
			<point x="838" y="292" type="line"/>
			<point x="838" y="322" type="line"/>
		</contour>
		<contour>
			<point x="257" y="208" type="line"/>
			<point x="257" y="-20" type="line"/>
			<point x="287" y="-16" type="line"/>
			<point x="287" y="208" type="line"/>
		</contour>
		<contour>
			<point x="122" y="146" type="line"/>
			<point x="122" y="-33" type="line"/>
			<point x="152" y="-29" type="line"/>
			<point x="152" y="146" type="line"/>
		</contour>
	</outline>
</glyph>
<glyph name="c1984" format="1">
	<advance width="1000"/>
	<outline>
		<contour>
			<point x="183" y="423" type="line"/>
			<point x="183" y="393" type="line"/>
			<point x="962" y="393" type="line"/>
			<point x="962" y="423" type="line"/>
		</contour>
		<contour>
			<point x="252" y="580" type="line"/>
			<point x="252" y="550" type="line"/>
			<point x="832" y="550" type="line"/>
			<point x="832" y="254" type="line"/>
			<point x="246" y="254" type="line"/>
			<point x="246" y="224" type="line"/>
			<point x="862" y="224" type="line"/>
			<point x="862" y="580" type="line"/>
		</contour>
		<contour>
			<point x="534" y="670" type="line"/>
			<point x="534" y="352" type="line"/>
			<point x="534" y="204"/>
			<point x="517" y="37"/>
			<point x="186" y="-55" type="curve"/>
			<point x="191" y="-62"/>
			<point x="199" y="-74"/>
			<point x="203" y="-81" type="curve"/>
			<point x="542" y="18"/>
			<point x="564" y="193"/>
			<point x="564" y="352" type="curve"/>
			<point x="564" y="670" type="line"/>
		</contour>
		<contour>
			<point x="578" y="244" type="curve"/>
			<point x="549" y="237" type="line"/>
			<point x="600" y="58"/>
			<point x="728" y="-41"/>
			<point x="930" y="-83" type="curve"/>
			<point x="934" y="-73"/>
			<point x="943" y="-62"/>
			<point x="950" y="-55" type="curve"/>
			<point x="750" y="-20"/>
			<point x="626" y="75"/>
		</contour>
		<contour>
			<point x="512" y="839" type="line"/>
			<point x="512" y="713" type="line"/>
			<point x="542" y="713" type="line"/>
			<point x="542" y="839" type="line"/>
		</contour>
		<contour>
			<point x="139" y="731" type="line"/>
			<point x="139" y="701" type="line"/>
			<point x="954" y="701" type="line"/>
			<point x="954" y="731" type="line"/>
		</contour>
		<contour>
			<point x="123" y="731" type="line"/>
			<point x="123" y="409" type="line"/>
			<point x="123" y="269"/>
			<point x="114" y="82"/>
			<point x="29" y="-54" type="curve"/>
			<point x="36" y="-57"/>
			<point x="49" y="-66"/>
			<point x="54" y="-72" type="curve"/>
			<point x="141" y="67"/>
			<point x="153" y="265"/>
			<point x="153" y="409" type="curve"/>
			<point x="153" y="731" type="line"/>
		</contour>
	</outline>
</glyph>
<glyph name="c2057" format="1">
	<advance width="1000"/>
	<outline>
		<contour>
			<point x="333" y="729" type="line"/>
			<point x="333" y="699" type="line"/>
			<point x="946" y="699" type="line"/>
			<point x="946" y="729" type="line"/>
		</contour>
		<contour>
			<point x="433" y="213" type="line"/>
			<point x="433" y="183" type="line"/>
			<point x="627" y="183" type="line"/>
			<point x="627" y="213" type="line"/>
		</contour>
		<contour>
			<point x="415" y="321" type="line"/>
			<point x="415" y="-35" type="line"/>
			<point x="445" y="-35" type="line"/>
			<point x="445" y="321" type="line"/>
		</contour>
		<contour>
			<point x="598" y="839" type="line"/>
			<point x="598" y="717" type="line"/>
			<point x="628" y="717" type="line"/>
			<point x="628" y="839" type="line"/>
		</contour>
		<contour>
			<point x="509" y="666" type="line"/>
			<point x="509" y="382" type="line"/>
			<point x="539" y="382" type="line"/>
			<point x="539" y="666" type="line"/>
		</contour>
		<contour>
			<point x="706" y="666" type="line"/>
			<point x="706" y="382" type="line"/>
			<point x="736" y="382" type="line"/>
			<point x="736" y="666" type="line"/>
		</contour>
		<contour>
			<point x="902" y="270" type="line"/>
			<point x="846" y="234"/>
			<point x="749" y="185"/>
			<point x="681" y="157" type="curve"/>
			<point x="700" y="135" type="line"/>
			<point x="768" y="163"/>
			<point x="861" y="205"/>
			<point x="924" y="248" type="curve"/>
		</contour>
		<contour>
			<point x="331" y="567" type="line"/>
			<point x="331" y="537" type="line"/>
			<point x="899" y="537" type="line"/>
			<point x="899" y="387" type="line"/>
			<point x="331" y="387" type="line"/>
			<point x="331" y="357" type="line"/>
			<point x="929" y="357" type="line"/>
			<point x="929" y="567" type="line"/>
		</contour>
		<contour>
			<point x="673" y="323" type="line"/>
			<point x="673" y="-14" type="line"/>
			<point x="673" y="-63"/>
			<point x="689" y="-73"/>
			<point x="749" y="-73" type="curve"/>
			<point x="762" y="-73"/>
			<point x="880" y="-73"/>
			<point x="894" y="-73" type="curve"/>
			<point x="948" y="-73"/>
			<point x="958" y="-45"/>
			<point x="962" y="68" type="curve"/>
			<point x="953" y="70"/>
			<point x="941" y="75"/>
			<point x="933" y="81" type="curve"/>
			<point x="930" y="-28"/>
			<point x="925" y="-44"/>
			<point x="891" y="-44" type="curve"/>
			<point x="867" y="-44"/>
			<point x="767" y="-44"/>
			<point x="749" y="-44" type="curve"/>
			<point x="710" y="-44"/>
			<point x="703" y="-39"/>
			<point x="703" y="-15" type="curve"/>
			<point x="703" y="323" type="line"/>
		</contour>
		<contour>
			<point x="335" y="-40" type="curve"/>
			<point x="343" y="-71" type="line"/>
			<point x="422" y="-55"/>
			<point x="530" y="-32"/>
			<point x="636" y="-11" type="curve"/>
			<point x="634" y="20" type="line"/>
			<point x="520" y="-3"/>
			<point x="410" y="-26"/>
		</contour>
		<contour>
			<point x="312" y="729" type="line"/>
			<point x="312" y="415" type="line"/>
			<point x="312" y="270"/>
			<point x="301" y="78"/>
			<point x="195" y="-60" type="curve"/>
			<point x="203" y="-63"/>
			<point x="215" y="-71"/>
			<point x="220" y="-77" type="curve"/>
			<point x="327" y="64"/>
			<point x="342" y="266"/>
			<point x="342" y="415" type="curve"/>
			<point x="342" y="729" type="line"/>
		</contour>
		<contour>
			<point x="88" y="806" type="line"/>
			<point x="147" y="775"/>
			<point x="216" y="726"/>
			<point x="250" y="690" type="curve"/>
			<point x="269" y="715" type="line"/>
			<point x="235" y="750"/>
			<point x="166" y="797"/>
			<point x="107" y="827" type="curve"/>
		</contour>
		<contour>
			<point x="39" y="529" type="line"/>
			<point x="102" y="502"/>
			<point x="176" y="458"/>
			<point x="214" y="425" type="curve"/>
			<point x="231" y="451" type="line"/>
			<point x="194" y="484"/>
			<point x="120" y="526"/>
			<point x="56" y="551" type="curve"/>
		</contour>
		<contour>
			<point x="57" y="-46" type="curve"/>
			<point x="84" y="-65" type="line"/>
			<point x="131" y="23"/>
			<point x="190" y="156"/>
			<point x="231" y="260" type="curve"/>
			<point x="207" y="278" type="line"/>
			<point x="164" y="168"/>
			<point x="101" y="32"/>
		</contour>
	</outline>
</glyph>
<glyph name="c21305" format="1">
	<advance width="1000"/>
	<outline>
		<contour>
			<point x="183" y="-11" type="line"/>
			<point x="183" y="-41" type="line"/>
			<point x="823" y="-41" type="line"/>
			<point x="823" y="-11" type="line"/>
		</contour>
		<contour>
			<point x="168" y="181" type="line"/>
			<point x="168" y="-80" type="line"/>
			<point x="198" y="-80" type="line"/>
			<point x="198" y="151" type="line"/>
			<point x="812" y="151" type="line"/>
			<point x="812" y="-78" type="line"/>
			<point x="842" y="-78" type="line"/>
			<point x="842" y="181" type="line"/>
		</contour>
		<contour>
			<point x="301" y="737" type="line"/>
			<point x="301" y="707" type="line"/>
			<point x="950" y="707" type="line"/>
			<point x="950" y="737" type="line"/>
		</contour>
		<contour>
			<point x="55" y="673" type="line"/>
			<point x="114" y="652"/>
			<point x="183" y="616"/>
			<point x="219" y="586" type="curve"/>
			<point x="235" y="611" type="line"/>
			<point x="200" y="641"/>
			<point x="131" y="675"/>
			<point x="72" y="695" type="curve"/>
		</contour>
		<contour>
			<point x="110" y="808" type="line"/>
			<point x="165" y="780"/>
			<point x="229" y="736"/>
			<point x="261" y="705" type="curve"/>
			<point x="281" y="728" type="line"/>
			<point x="249" y="759"/>
			<point x="184" y="801"/>
			<point x="130" y="828" type="curve"/>
		</contour>
		<contour>
			<point x="421" y="825" type="line"/>
			<point x="449" y="799"/>
			<point x="479" y="762"/>
			<point x="492" y="736" type="curve"/>
			<point x="518" y="752" type="line"/>
			<point x="505" y="778"/>
			<point x="475" y="814"/>
			<point x="447" y="839" type="curve"/>
		</contour>
		<contour>
			<point x="398" y="526" type="line"/>
			<point x="841" y="526" type="line"/>
			<point x="841" y="466" type="line"/>
			<point x="398" y="466" type="line"/>
		</contour>
		<contour>
			<point x="398" y="436" type="line"/>
			<point x="841" y="436" type="line"/>
			<point x="841" y="374" type="line"/>
			<point x="398" y="374" type="line"/>
		</contour>
		<contour>
			<point x="398" y="615" type="line"/>
			<point x="841" y="615" type="line"/>
			<point x="841" y="556" type="line"/>
			<point x="398" y="556" type="line"/>
		</contour>
		<contour>
			<point x="368" y="645" type="line"/>
			<point x="368" y="344" type="line"/>
			<point x="871" y="344" type="line"/>
			<point x="871" y="645" type="line"/>
		</contour>
		<contour>
			<point x="228" y="530" type="line"/>
			<point x="46" y="530" type="line"/>
			<point x="46" y="500" type="line"/>
			<point x="198" y="500" type="line"/>
			<point x="198" y="355" type="line"/>
			<point x="228" y="355" type="line"/>
		</contour>
		<contour>
			<point x="593" y="731" type="line"/>
			<point x="585" y="702"/>
			<point x="568" y="656"/>
			<point x="555" y="627" type="curve"/>
			<point x="580" y="620" type="line"/>
			<point x="594" y="647"/>
			<point x="609" y="686"/>
			<point x="623" y="723" type="curve"/>
		</contour>
		<contour>
			<point x="770" y="840" type="line"/>
			<point x="754" y="814"/>
			<point x="724" y="774"/>
			<point x="701" y="749" type="curve"/>
			<point x="727" y="738" type="line"/>
			<point x="751" y="763"/>
			<point x="777" y="795"/>
			<point x="800" y="829" type="curve"/>
		</contour>
		<contour>
			<point x="228" y="371" type="curve"/>
			<point x="204" y="371" type="line"/>
			<point x="151" y="333"/>
			<point x="91" y="295"/>
			<point x="43" y="268" type="curve"/>
			<point x="60" y="237" type="line"/>
			<point x="112" y="271"/>
			<point x="164" y="307"/>
			<point x="215" y="343" type="curve"/>
			<point x="270" y="282"/>
			<point x="356" y="252"/>
			<point x="467" y="249" type="curve"/>
			<point x="581" y="246"/>
			<point x="833" y="247"/>
			<point x="949" y="251" type="curve"/>
			<point x="950" y="261"/>
			<point x="956" y="274"/>
			<point x="960" y="282" type="curve"/>
			<point x="841" y="277"/>
			<point x="577" y="274"/>
			<point x="465" y="277" type="curve"/>
			<point x="364" y="280"/>
			<point x="274" y="310"/>
		</contour>
	</outline>
</glyph>
<glyph name="c21932" format="1">
	<advance width="1000"/>
	<outline>
		<contour>
			<point x="330" y="-21" type="line"/>
			<point x="330" y="-51" type="line"/>
			<point x="961" y="-51" type="line"/>
			<point x="961" y="-21" type="line"/>
		</contour>
		<contour>
			<point x="417" y="163" type="line"/>
			<point x="417" y="132" type="line"/>
			<point x="895" y="132" type="line"/>
			<point x="895" y="163" type="line"/>
		</contour>
		<contour>
			<point x="450" y="617" type="line"/>
			<point x="859" y="617" type="line"/>
			<point x="859" y="494" type="line"/>
			<point x="450" y="494" type="line"/>
		</contour>
		<contour>
			<point x="450" y="768" type="line"/>
			<point x="859" y="768" type="line"/>
			<point x="859" y="647" type="line"/>
			<point x="450" y="647" type="line"/>
		</contour>
		<contour>
			<point x="420" y="798" type="line"/>
			<point x="420" y="464" type="line"/>
			<point x="889" y="464" type="line"/>
			<point x="889" y="798" type="line"/>
		</contour>
		<contour>
			<point x="632" y="436" type="line"/>
			<point x="632" y="-37" type="line"/>
			<point x="662" y="-37" type="line"/>
			<point x="662" y="436" type="line"/>
		</contour>
		<contour>
			<point x="473" y="437" type="line"/>
			<point x="444" y="347"/>
			<point x="395" y="263"/>
			<point x="335" y="206" type="curve"/>
			<point x="343" y="201"/>
			<point x="356" y="192"/>
			<point x="361" y="187" type="curve"/>
			<point x="419" y="247"/>
			<point x="471" y="336"/>
			<point x="503" y="431" type="curve"/>
		</contour>
		<contour>
			<point x="447" y="329" type="line"/>
			<point x="432" y="299" type="line"/>
			<point x="916" y="299" type="line"/>
			<point x="916" y="329" type="line"/>
		</contour>
		<contour>
			<point x="201" y="829" type="line"/>
			<point x="201" y="488" type="line"/>
			<point x="201" y="292"/>
			<point x="185" y="97"/>
			<point x="31" y="-58" type="curve"/>
			<point x="39" y="-63"/>
			<point x="49" y="-72"/>
			<point x="54" y="-78" type="curve"/>
			<point x="213" y="83"/>
			<point x="231" y="283"/>
			<point x="231" y="488" type="curve"/>
			<point x="231" y="829" type="line"/>
		</contour>
		<contour>
			<point x="109" y="635" type="line"/>
			<point x="103" y="542"/>
			<point x="82" y="446"/>
			<point x="38" y="394" type="curve"/>
			<point x="61" y="377" type="line"/>
			<point x="110" y="434"/>
			<point x="130" y="536"/>
			<point x="136" y="630" type="curve"/>
		</contour>
		<contour>
			<point x="338" y="668" type="line"/>
			<point x="318" y="605"/>
			<point x="279" y="509"/>
			<point x="250" y="453" type="curve"/>
			<point x="273" y="441" type="line"/>
			<point x="303" y="497"/>
			<point x="340" y="585"/>
			<point x="367" y="654" type="curve"/>
		</contour>
		<contour>
			<point x="214" y="268" type="curve"/>
			<point x="192" y="251" type="line"/>
			<point x="221" y="214"/>
			<point x="311" y="81"/>
			<point x="338" y="35" type="curve"/>
			<point x="361" y="60" type="line"/>
			<point x="339" y="94"/>
			<point x="240" y="236"/>
		</contour>
	</outline>
</glyph>
<glyph name="c22050" format="1">
	<advance width="1000"/>
	<outline>
		<contour>
			<point x="628" y="763" type="line"/>
			<point x="842" y="763" type="line"/>
			<point x="842" y="591" type="line"/>
			<point x="628" y="591" type="line"/>
		</contour>
		<contour>
			<point x="387" y="763" type="line"/>
			<point x="598" y="763" type="line"/>
			<point x="598" y="591" type="line"/>
			<point x="387" y="591" type="line"/>
		</contour>
		<contour>
			<point x="154" y="763" type="line"/>
			<point x="357" y="763" type="line"/>
			<point x="357" y="591" type="line"/>
			<point x="154" y="591" type="line"/>
		</contour>
		<contour>
			<point x="124" y="793" type="line"/>
			<point x="124" y="561" type="line"/>
			<point x="872" y="561" type="line"/>
			<point x="872" y="793" type="line"/>
		</contour>
		<contour>
			<point x="513" y="430" type="curve"/>
			<point x="488" y="420" type="line"/>
			<point x="570" y="232"/>
			<point x="738" y="79"/>
			<point x="932" y="15" type="curve"/>
			<point x="937" y="23"/>
			<point x="945" y="34"/>
			<point x="952" y="40" type="curve"/>
			<point x="758" y="98"/>
			<point x="591" y="248"/>
		</contour>
		<contour>
			<point x="840" y="470" type="line"/>
			<point x="781" y="404"/>
			<point x="676" y="310"/>
			<point x="601" y="255" type="curve"/>
			<point x="621" y="239" type="line"/>
			<point x="697" y="293"/>
			<point x="797" y="380"/>
			<point x="865" y="451" type="curve"/>
		</contour>
		<contour>
			<point x="134" y="442" type="line"/>
			<point x="203" y="388"/>
			<point x="283" y="311"/>
			<point x="322" y="261" type="curve"/>
			<point x="345" y="280" type="line"/>
			<point x="307" y="329"/>
			<point x="226" y="405"/>
			<point x="157" y="458" type="curve"/>
		</contour>
		<contour>
			<point x="483" y="538" type="line"/>
			<point x="483" y="-28" type="line"/>
			<point x="483" y="-44"/>
			<point x="477" y="-48"/>
			<point x="460" y="-49" type="curve"/>
			<point x="444" y="-50"/>
			<point x="386" y="-51"/>
			<point x="314" y="-49" type="curve"/>
			<point x="319" y="-58"/>
			<point x="324" y="-69"/>
			<point x="327" y="-77" type="curve"/>
			<point x="414" y="-77"/>
			<point x="459" y="-77"/>
			<point x="482" y="-72" type="curve"/>
			<point x="504" y="-66"/>
			<point x="513" y="-55"/>
			<point x="513" y="-27" type="curve"/>
			<point x="513" y="538" type="line"/>
		</contour>
		<contour>
			<point x="55" y="49" type="curve"/>
			<point x="71" y="23" type="line"/>
			<point x="168" y="65"/>
			<point x="302" y="125"/>
			<point x="427" y="183" type="curve"/>
			<point x="421" y="208" type="line"/>
			<point x="287" y="148"/>
			<point x="146" y="86"/>
		</contour>
	</outline>
</glyph>
<glyph name="c22370" format="1">
	<advance width="1000"/>
	<outline>
		<contour>
			<point x="53" y="761" type="line"/>
			<point x="53" y="731" type="line"/>
			<point x="949" y="731" type="line"/>
			<point x="949" y="761" type="line"/>
		</contour>
		<contour>
			<point x="318" y="839" type="line"/>
			<point x="318" y="677" type="line"/>
			<point x="348" y="677" type="line"/>
			<point x="348" y="839" type="line"/>
		</contour>
		<contour>
			<point x="644" y="839" type="line"/>
			<point x="644" y="677" type="line"/>
			<point x="674" y="677" type="line"/>
			<point x="674" y="839" type="line"/>
		</contour>
		<contour>
			<point x="627" y="622" type="line"/>
			<point x="836" y="622" type="line"/>
			<point x="836" y="513" type="line"/>
			<point x="627" y="513" type="line"/>
		</contour>
		<contour>
			<point x="392" y="622" type="line"/>
			<point x="597" y="622" type="line"/>
			<point x="597" y="513" type="line"/>
			<point x="392" y="513" type="line"/>
		</contour>
		<contour>
			<point x="165" y="622" type="line"/>
			<point x="362" y="622" type="line"/>
			<point x="362" y="513" type="line"/>
			<point x="165" y="513" type="line"/>
		</contour>
		<contour>
			<point x="135" y="652" type="line"/>
			<point x="135" y="483" type="line"/>
			<point x="866" y="483" type="line"/>
			<point x="866" y="652" type="line"/>
		</contour>
		<contour>
			<point x="216" y="277" type="line"/>
			<point x="787" y="277" type="line"/>
			<point x="787" y="201" type="line"/>
			<point x="216" y="201" type="line"/>
		</contour>
		<contour>
			<point x="216" y="171" type="line"/>
			<point x="787" y="171" type="line"/>
			<point x="787" y="94" type="line"/>
			<point x="216" y="94" type="line"/>
		</contour>
		<contour>
			<point x="216" y="381" type="line"/>
			<point x="787" y="381" type="line"/>
			<point x="787" y="307" type="line"/>
			<point x="216" y="307" type="line"/>
		</contour>
		<contour>
			<point x="186" y="411" type="line"/>
			<point x="186" y="64" type="line"/>
			<point x="817" y="64" type="line"/>
			<point x="817" y="411" type="line"/>
		</contour>
		<contour>
			<point x="601" y="22" type="line"/>
			<point x="728" y="-12"/>
			<point x="849" y="-51"/>
			<point x="921" y="-82" type="curve"/>
			<point x="952" y="-60" type="line"/>
			<point x="874" y="-28"/>
			<point x="748" y="11"/>
			<point x="627" y="42" type="curve"/>
		</contour>
		<contour>
			<point x="369" y="41" type="line"/>
			<point x="288" y="2"/>
			<point x="160" y="-34"/>
			<point x="53" y="-57" type="curve"/>
			<point x="61" y="-63"/>
			<point x="73" y="-75"/>
			<point x="78" y="-81" type="curve"/>
			<point x="181" y="-56"/>
			<point x="311" y="-15"/>
			<point x="397" y="28" type="curve"/>
		</contour>
	</outline>
</glyph>
<glyph name="c2267" format="1">
	<advance width="1000"/>
	<outline>
		<contour>
			<point x="370" y="683" type="line"/>
			<point x="370" y="359" type="line"/>
			<point x="400" y="359" type="line"/>
			<point x="400" y="683" type="line"/>
		</contour>
		<contour>
			<point x="627" y="683" type="line"/>
			<point x="627" y="359" type="line"/>
			<point x="657" y="359" type="line"/>
			<point x="657" y="683" type="line"/>
		</contour>
		<contour>
			<point x="284" y="197" type="line"/>
			<point x="284" y="167" type="line"/>
			<point x="537" y="167" type="line"/>
			<point x="537" y="197" type="line"/>
		</contour>
		<contour>
			<point x="269" y="314" type="line"/>
			<point x="269" y="-37" type="line"/>
			<point x="299" y="-37" type="line"/>
			<point x="299" y="314" type="line"/>
		</contour>
		<contour>
			<point x="156" y="-42" type="curve"/>
			<point x="161" y="-73" type="line"/>
			<point x="262" y="-61"/>
			<point x="409" y="-43"/>
			<point x="552" y="-25" type="curve"/>
			<point x="552" y="4" type="line"/>
			<point x="402" y="-14"/>
			<point x="253" y="-32"/>
		</contour>
		<contour>
			<point x="878" y="253" type="line"/>
			<point x="817" y="216"/>
			<point x="701" y="177"/>
			<point x="603" y="149" type="curve"/>
			<point x="608" y="141"/>
			<point x="613" y="131"/>
			<point x="616" y="124" type="curve"/>
			<point x="716" y="151"/>
			<point x="832" y="189"/>
			<point x="906" y="229" type="curve"/>
		</contour>
		<contour>
			<point x="594" y="314" type="line"/>
			<point x="594" y="-12" type="line"/>
			<point x="594" y="-64"/>
			<point x="613" y="-74"/>
			<point x="685" y="-74" type="curve"/>
			<point x="700" y="-74"/>
			<point x="857" y="-74"/>
			<point x="873" y="-74" type="curve"/>
			<point x="934" y="-74"/>
			<point x="946" y="-48"/>
			<point x="950" y="59" type="curve"/>
			<point x="941" y="61"/>
			<point x="929" y="66"/>
			<point x="921" y="72" type="curve"/>
			<point x="918" y="-29"/>
			<point x="911" y="-45"/>
			<point x="871" y="-45" type="curve"/>
			<point x="839" y="-45"/>
			<point x="706" y="-45"/>
			<point x="683" y="-45" type="curve"/>
			<point x="633" y="-45"/>
			<point x="624" y="-39"/>
			<point x="624" y="-12" type="curve"/>
			<point x="624" y="314" type="line"/>
		</contour>
		<contour>
			<point x="141" y="573" type="line"/>
			<point x="141" y="543" type="line"/>
			<point x="889" y="543" type="line"/>
			<point x="889" y="377" type="line"/>
			<point x="141" y="377" type="line"/>
			<point x="141" y="347" type="line"/>
			<point x="919" y="347" type="line"/>
			<point x="919" y="573" type="line"/>
		</contour>
		<contour>
			<point x="512" y="839" type="line"/>
			<point x="512" y="722" type="line"/>
			<point x="542" y="722" type="line"/>
			<point x="542" y="839" type="line"/>
		</contour>
		<contour>
			<point x="145" y="739" type="line"/>
			<point x="145" y="709" type="line"/>
			<point x="947" y="709" type="line"/>
			<point x="947" y="739" type="line"/>
		</contour>
		<contour>
			<point x="129" y="739" type="line"/>
			<point x="129" y="433" type="line"/>
			<point x="129" y="285"/>
			<point x="120" y="84"/>
			<point x="35" y="-62" type="curve"/>
			<point x="42" y="-66"/>
			<point x="55" y="-74"/>
			<point x="60" y="-80" type="curve"/>
			<point x="147" y="70"/>
			<point x="159" y="282"/>
			<point x="159" y="433" type="curve"/>
			<point x="159" y="739" type="line"/>
		</contour>
	</outline>
</glyph>
<glyph name="c3452" format="1">
	<advance width="1000"/>
	<outline>
		<contour>
			<point x="359" y="355" type="line"/>
			<point x="359" y="325" type="line"/>
			<point x="832" y="325" type="line"/>
			<point x="832" y="355" type="line"/>
		</contour>
		<contour>
			<point x="359" y="559" type="line"/>
			<point x="359" y="529" type="line"/>
			<point x="904" y="529" type="line"/>
			<point x="904" y="559" type="line"/>
		</contour>
		<contour>
			<point x="606" y="674" type="line"/>
			<point x="606" y="336" type="line"/>
			<point x="636" y="336" type="line"/>
			<point x="636" y="674" type="line"/>
		</contour>
		<contour>
			<point x="822" y="355" type="line"/>
			<point x="822" y="348" type="line"/>
			<point x="748" y="124"/>
			<point x="539" y="-6"/>
			<point x="337" y="-56" type="curve"/>
			<point x="344" y="-63"/>
			<point x="352" y="-75"/>
			<point x="355" y="-83" type="curve"/>
			<point x="563" y="-27"/>
			<point x="774" y="105"/>
			<point x="855" y="346" type="curve"/>
			<point x="835" y="357" type="line"/>
			<point x="829" y="355" type="line"/>
		</contour>
		<contour>
			<point x="460" y="346" type="curve"/>
			<point x="432" y="336" type="line"/>
			<point x="512" y="116"/>
			<point x="689" y="-25"/>
			<point x="931" y="-83" type="curve"/>
			<point x="935" y="-74"/>
			<point x="944" y="-63"/>
			<point x="951" y="-56" type="curve"/>
			<point x="709" y="-4"/>
			<point x="537" y="134"/>
		</contour>
		<contour>
			<point x="344" y="559" type="line"/>
			<point x="344" y="369" type="line"/>
			<point x="344" y="238"/>
			<point x="326" y="65"/>
			<point x="204" y="-62" type="curve"/>
			<point x="212" y="-66"/>
			<point x="223" y="-75"/>
			<point x="227" y="-82" type="curve"/>
			<point x="352" y="50"/>
			<point x="374" y="233"/>
			<point x="374" y="368" type="curve"/>
			<point x="374" y="559" type="line"/>
		</contour>
		<contour>
			<point x="897" y="559" type="line"/>
			<point x="897" y="552" type="line"/>
			<point x="879" y="501"/>
			<point x="854" y="442"/>
			<point x="833" y="404" type="curve"/>
			<point x="859" y="395" type="line"/>
			<point x="881" y="434"/>
			<point x="907" y="497"/>
			<point x="930" y="552" type="curve"/>
			<point x="910" y="561" type="line"/>
			<point x="903" y="559" type="line"/>
		</contour>
		<contour>
			<point x="207" y="739" type="line"/>
			<point x="207" y="709" type="line"/>
			<point x="950" y="709" type="line"/>
			<point x="950" y="739" type="line"/>
		</contour>
		<contour>
			<point x="190" y="739" type="line"/>
			<point x="190" y="407" type="line"/>
			<point x="190" y="260"/>
			<point x="177" y="73"/>
			<point x="58" y="-62" type="curve"/>
			<point x="65" y="-67"/>
			<point x="76" y="-76"/>
			<point x="81" y="-83" type="curve"/>
			<point x="203" y="57"/>
			<point x="220" y="256"/>
			<point x="220" y="407" type="curve"/>
			<point x="220" y="739" type="line"/>
		</contour>
		<contour>
			<point x="538" y="839" type="line"/>
			<point x="538" y="722" type="line"/>
			<point x="568" y="722" type="line"/>
			<point x="568" y="839" type="line"/>
		</contour>
		<contour>
			<point x="52" y="640" type="line"/>
			<point x="86" y="578"/>
			<point x="116" y="496"/>
			<point x="125" y="444" type="curve"/>
			<point x="154" y="456" type="line"/>
			<point x="146" y="506"/>
			<point x="115" y="587"/>
			<point x="80" y="649" type="curve"/>
		</contour>
		<contour>
			<point x="32" y="243" type="curve"/>
			<point x="49" y="218" type="line"/>
			<point x="99" y="246"/>
			<point x="154" y="279"/>
			<point x="209" y="312" type="curve"/>
			<point x="202" y="337" type="line"/>
			<point x="137" y="300"/>
			<point x="76" y="265"/>
		</contour>
	</outline>
</glyph>
<glyph name="c3758" format="1">
	<advance width="1000"/>
	<outline>
		<contour>
			<point x="83" y="177" type="line"/>
			<point x="83" y="147" type="line"/>
			<point x="799" y="147" type="line"/>
			<point x="799" y="177" type="line"/>
		</contour>
		<contour>
			<point x="215" y="536" type="line"/>
			<point x="786" y="536" type="line"/>
			<point x="786" y="469" type="line"/>
			<point x="215" y="469" type="line"/>
		</contour>
		<contour>
			<point x="215" y="631" type="line"/>
			<point x="786" y="631" type="line"/>
			<point x="786" y="566" type="line"/>
			<point x="215" y="566" type="line"/>
		</contour>
		<contour>
			<point x="185" y="661" type="line"/>
			<point x="185" y="439" type="line"/>
			<point x="816" y="439" type="line"/>
			<point x="816" y="661" type="line"/>
		</contour>
		<contour>
			<point x="636" y="350" type="line"/>
			<point x="862" y="350" type="line"/>
			<point x="862" y="262" type="line"/>
			<point x="636" y="262" type="line"/>
		</contour>
		<contour>
			<point x="383" y="350" type="line"/>
			<point x="606" y="350" type="line"/>
			<point x="606" y="262" type="line"/>
			<point x="383" y="262" type="line"/>
		</contour>
		<contour>
			<point x="139" y="350" type="line"/>
			<point x="353" y="350" type="line"/>
			<point x="353" y="262" type="line"/>
			<point x="139" y="262" type="line"/>
		</contour>
		<contour>
			<point x="109" y="380" type="line"/>
			<point x="109" y="232" type="line"/>
			<point x="892" y="232" type="line"/>
			<point x="892" y="380" type="line"/>
		</contour>
		<contour>
			<point x="793" y="177" type="line"/>
			<point x="793" y="170" type="line"/>
			<point x="656" y="32"/>
			<point x="326" y="-32"/>
			<point x="44" y="-52" type="curve"/>
			<point x="50" y="-60"/>
			<point x="56" y="-72"/>
			<point x="58" y="-81" type="curve"/>
			<point x="345" y="-57"/>
			<point x="678" y="9"/>
			<point x="828" y="162" type="curve"/>
			<point x="808" y="179" type="line"/>
			<point x="801" y="177" type="line"/>
		</contour>
		<contour>
			<point x="237" y="155" type="curve"/>
			<point x="212" y="139" type="line"/>
			<point x="357" y="12"/>
			<point x="665" y="-57"/>
			<point x="945" y="-80" type="curve"/>
			<point x="949" y="-71"/>
			<point x="955" y="-59"/>
			<point x="962" y="-52" type="curve"/>
			<point x="679" y="-32"/>
			<point x="375" y="34"/>
		</contour>
		<contour>
			<point x="51" y="767" type="line"/>
			<point x="51" y="737" type="line"/>
			<point x="952" y="737" type="line"/>
			<point x="952" y="767" type="line"/>
		</contour>
		<contour>
			<point x="310" y="839" type="line"/>
			<point x="310" y="681" type="line"/>
			<point x="340" y="681" type="line"/>
			<point x="340" y="839" type="line"/>
		</contour>
		<contour>
			<point x="655" y="839" type="line"/>
			<point x="655" y="681" type="line"/>
			<point x="685" y="681" type="line"/>
			<point x="685" y="839" type="line"/>
		</contour>
	</outline>
</glyph>
<glyph name="c4866" format="1">
	<advance width="1000"/>
	<outline>
		<contour>
			<point x="436" y="610" type="line"/>
			<point x="875" y="610" type="line"/>
			<point x="875" y="482" type="line"/>
			<point x="436" y="482" type="line"/>
		</contour>
		<contour>
			<point x="436" y="766" type="line"/>
			<point x="875" y="766" type="line"/>
			<point x="875" y="640" type="line"/>
			<point x="436" y="640" type="line"/>
		</contour>
		<contour>
			<point x="406" y="796" type="line"/>
			<point x="406" y="452" type="line"/>
			<point x="905" y="452" type="line"/>
			<point x="905" y="796" type="line"/>
		</contour>
		<contour>
			<point x="421" y="320" type="line"/>
			<point x="406" y="290" type="line"/>
			<point x="935" y="290" type="line"/>
			<point x="935" y="320" type="line"/>
		</contour>
		<contour>
			<point x="634" y="424" type="line"/>
			<point x="634" y="-40" type="line"/>
			<point x="664" y="-40" type="line"/>
			<point x="664" y="424" type="line"/>
		</contour>
		<contour>
			<point x="400" y="161" type="line"/>
			<point x="400" y="131" type="line"/>
			<point x="909" y="131" type="line"/>
			<point x="909" y="161" type="line"/>
		</contour>
		<contour>
			<point x="310" y="-20" type="line"/>
			<point x="310" y="-50" type="line"/>
			<point x="959" y="-50" type="line"/>
			<point x="959" y="-20" type="line"/>
		</contour>
		<contour>
			<point x="462" y="430" type="line"/>
			<point x="429" y="339"/>
			<point x="371" y="255"/>
			<point x="303" y="199" type="curve"/>
			<point x="311" y="194"/>
			<point x="324" y="184"/>
			<point x="329" y="179" type="curve"/>
			<point x="395" y="238"/>
			<point x="457" y="327"/>
			<point x="492" y="423" type="curve"/>
		</contour>
		<contour>
			<point x="189" y="840" type="line"/>
			<point x="189" y="-78" type="line"/>
			<point x="219" y="-78" type="line"/>
			<point x="219" y="840" type="line"/>
		</contour>
		<contour>
			<point x="83" y="648" type="line"/>
			<point x="81" y="560"/>
			<point x="63" y="451"/>
			<point x="25" y="390" type="curve"/>
			<point x="52" y="377" type="line"/>
			<point x="92" y="442"/>
			<point x="110" y="556"/>
			<point x="112" y="643" type="curve"/>
		</contour>
		<contour>
			<point x="258" y="668" type="line"/>
			<point x="290" y="611"/>
			<point x="323" y="534"/>
			<point x="336" y="487" type="curve"/>
			<point x="362" y="503" type="line"/>
			<point x="350" y="548"/>
			<point x="316" y="622"/>
			<point x="283" y="680" type="curve"/>
		</contour>
	</outline>
</glyph>
<glyph name="c6378" format="1">
	<advance width="1000"/>
	<outline>
		<contour>
			<point x="53" y="755" type="line"/>
			<point x="53" y="725" type="line"/>
			<point x="954" y="725" type="line"/>
			<point x="954" y="755" type="line"/>
		</contour>
		<contour>
			<point x="90" y="625" type="line"/>
			<point x="90" y="595" type="line"/>
			<point x="919" y="595" type="line"/>
			<point x="919" y="625" type="line"/>
		</contour>
		<contour>
			<point x="108" y="245" type="line"/>
			<point x="108" y="215" type="line"/>
			<point x="901" y="215" type="line"/>
			<point x="901" y="245" type="line"/>
		</contour>
		<contour>
			<point x="142" y="121" type="line"/>
			<point x="142" y="91" type="line"/>
			<point x="863" y="91" type="line"/>
			<point x="863" y="121" type="line"/>
		</contour>
		<contour>
			<point x="51" y="-10" type="line"/>
			<point x="51" y="-40" type="line"/>
			<point x="952" y="-40" type="line"/>
			<point x="952" y="-10" type="line"/>
		</contour>
		<contour>
			<point x="311" y="839" type="line"/>
			<point x="311" y="650" type="line"/>
			<point x="341" y="650" type="line"/>
			<point x="341" y="839" type="line"/>
		</contour>
		<contour>
			<point x="654" y="839" type="line"/>
			<point x="654" y="650" type="line"/>
			<point x="684" y="650" type="line"/>
			<point x="684" y="839" type="line"/>
		</contour>
		<contour>
			<point x="482" y="612" type="line"/>
			<point x="482" y="-27" type="line"/>
			<point x="512" y="-27" type="line"/>
			<point x="512" y="612" type="line"/>
		</contour>
		<contour>
			<point x="192" y="480" type="line"/>
			<point x="811" y="480" type="line"/>
			<point x="811" y="353" type="line"/>
			<point x="192" y="353" type="line"/>
		</contour>
		<contour>
			<point x="162" y="510" type="line"/>
			<point x="162" y="323" type="line"/>
			<point x="841" y="323" type="line"/>
			<point x="841" y="510" type="line"/>
		</contour>
	</outline>
</glyph>
<glyph name="c7225" format="1">
	<advance width="1000"/>
	<outline>
		<contour>
			<point x="406" y="163" type="line"/>
			<point x="406" y="133" type="line"/>
			<point x="960" y="133" type="line"/>
			<point x="960" y="163" type="line"/>
		</contour>
		<contour>
			<point x="424" y="345" type="line"/>
			<point x="424" y="315" type="line"/>
			<point x="942" y="315" type="line"/>
			<point x="942" y="345" type="line"/>
		</contour>
		<contour>
			<point x="444" y="804" type="line"/>
			<point x="444" y="774" type="line"/>
			<point x="619" y="774" type="line"/>
			<point x="619" y="658" type="line"/>
			<point x="444" y="658" type="line"/>
			<point x="444" y="628" type="line"/>
			<point x="649" y="628" type="line"/>
			<point x="649" y="804" type="line"/>
		</contour>
		<contour>
			<point x="552" y="452" type="line"/>
			<point x="552" y="146" type="line"/>
			<point x="582" y="146" type="line"/>
			<point x="582" y="452" type="line"/>
		</contour>
		<contour>
			<point x="776" y="452" type="line"/>
			<point x="776" y="146" type="line"/>
			<point x="806" y="146" type="line"/>
			<point x="806" y="452" type="line"/>
		</contour>
		<contour>
			<point x="428" y="804" type="line"/>
			<point x="428" y="529" type="line"/>
			<point x="428" y="486"/>
			<point x="442" y="478"/>
			<point x="493" y="478" type="curve"/>
			<point x="504" y="478"/>
			<point x="598" y="478"/>
			<point x="608" y="478" type="curve"/>
			<point x="649" y="478"/>
			<point x="659" y="496"/>
			<point x="662" y="570" type="curve"/>
			<point x="653" y="572"/>
			<point x="642" y="576"/>
			<point x="634" y="582" type="curve"/>
			<point x="632" y="515"/>
			<point x="628" y="506"/>
			<point x="604" y="506" type="curve"/>
			<point x="585" y="506"/>
			<point x="507" y="506"/>
			<point x="493" y="506" type="curve"/>
			<point x="463" y="506"/>
			<point x="458" y="510"/>
			<point x="458" y="529" type="curve"/>
			<point x="458" y="804" type="line"/>
		</contour>
		<contour>
			<point x="724" y="804" type="line"/>
			<point x="724" y="774" type="line"/>
			<point x="902" y="774" type="line"/>
			<point x="902" y="658" type="line"/>
			<point x="724" y="658" type="line"/>
			<point x="724" y="628" type="line"/>
			<point x="932" y="628" type="line"/>
			<point x="932" y="804" type="line"/>
		</contour>
		<contour>
			<point x="708" y="804" type="line"/>
			<point x="708" y="530" type="line"/>
			<point x="708" y="486"/>
			<point x="723" y="478"/>
			<point x="777" y="478" type="curve"/>
			<point x="788" y="478"/>
			<point x="893" y="478"/>
			<point x="905" y="478" type="curve"/>
			<point x="947" y="478"/>
			<point x="958" y="496"/>
			<point x="961" y="570" type="curve"/>
			<point x="952" y="572"/>
			<point x="940" y="576"/>
			<point x="933" y="582" type="curve"/>
			<point x="930" y="515"/>
			<point x="926" y="506"/>
			<point x="901" y="506" type="curve"/>
			<point x="880" y="506"/>
			<point x="792" y="506"/>
			<point x="777" y="506" type="curve"/>
			<point x="743" y="506"/>
			<point x="738" y="511"/>
			<point x="738" y="530" type="curve"/>
			<point x="738" y="804" type="line"/>
		</contour>
		<contour>
			<point x="746" y="72" type="line"/>
			<point x="818" y="28"/>
			<point x="906" y="-37"/>
			<point x="951" y="-78" type="curve"/>
			<point x="973" y="-57" type="line"/>
			<point x="927" y="-16"/>
			<point x="839" y="47"/>
			<point x="767" y="90" type="curve"/>
		</contour>
		<contour>
			<point x="582" y="92" type="line"/>
			<point x="539" y="40"/>
			<point x="446" y="-20"/>
			<point x="367" y="-56" type="curve"/>
			<point x="374" y="-63"/>
			<point x="383" y="-74"/>
			<point x="387" y="-81" type="curve"/>
			<point x="466" y="-43"/>
			<point x="558" y="17"/>
			<point x="616" y="76" type="curve"/>
		</contour>
		<contour>
			<point x="105" y="547" type="line"/>
			<point x="105" y="-83" type="line"/>
			<point x="135" y="-83" type="line"/>
			<point x="135" y="547" type="line"/>
		</contour>
		<contour>
			<point x="123" y="426" type="line"/>
			<point x="123" y="396" type="line"/>
			<point x="362" y="396" type="line"/>
			<point x="362" y="426" type="line"/>
		</contour>
		<contour>
			<point x="146" y="653" type="line"/>
			<point x="146" y="623" type="line"/>
			<point x="349" y="623" type="line"/>
			<point x="349" y="653" type="line"/>
		</contour>
		<contour>
			<point x="120" y="186" type="line"/>
			<point x="120" y="156" type="line"/>
			<point x="382" y="156" type="line"/>
			<point x="382" y="186" type="line"/>
		</contour>
		<contour>
			<point x="120" y="61" type="line"/>
			<point x="120" y="31" type="line"/>
			<point x="391" y="31" type="line"/>
			<point x="391" y="61" type="line"/>
		</contour>
		<contour>
			<point x="121" y="547" type="line"/>
			<point x="121" y="517" type="line"/>
			<point x="347" y="517" type="line"/>
			<point x="347" y="299" type="line"/>
			<point x="121" y="299" type="line"/>
			<point x="121" y="269" type="line"/>
			<point x="377" y="269" type="line"/>
			<point x="377" y="547" type="line"/>
		</contour>
		<contour>
			<point x="217" y="839" type="line"/>
			<point x="179" y="762"/>
			<point x="110" y="660"/>
			<point x="19" y="582" type="curve"/>
			<point x="27" y="578"/>
			<point x="38" y="570"/>
			<point x="44" y="563" type="curve"/>
			<point x="137" y="645"/>
			<point x="204" y="747"/>
			<point x="245" y="819" type="curve"/>
			<point x="245" y="829" type="line"/>
			<point x="234" y="829" type="line"/>
			<point x="234" y="839" type="line"/>
		</contour>
		<contour>
			<point x="226" y="839" type="line"/>
			<point x="226" y="817" type="line"/>
			<point x="234" y="817" type="line"/>
			<point x="295" y="762"/>
			<point x="364" y="679"/>
			<point x="399" y="628" type="curve"/>
			<point x="422" y="652" type="line"/>
			<point x="388" y="702"/>
			<point x="316" y="782"/>
			<point x="254" y="839" type="curve"/>
		</contour>
	</outline>
</glyph>
<glyph name="c7253" format="1">
	<advance width="1000"/>
	<outline>
		<contour>
			<point x="55" y="767" type="line"/>
			<point x="55" y="737" type="line"/>
			<point x="947" y="737" type="line"/>
			<point x="947" y="767" type="line"/>
		</contour>
		<contour>
			<point x="310" y="839" type="line"/>
			<point x="310" y="686" type="line"/>
			<point x="340" y="686" type="line"/>
			<point x="340" y="839" type="line"/>
		</contour>
		<contour>
			<point x="655" y="839" type="line"/>
			<point x="655" y="686" type="line"/>
			<point x="685" y="686" type="line"/>
			<point x="685" y="839" type="line"/>
		</contour>
		<contour>
			<point x="223" y="551" type="line"/>
			<point x="794" y="551" type="line"/>
			<point x="794" y="489" type="line"/>
			<point x="223" y="489" type="line"/>
		</contour>
		<contour>
			<point x="223" y="641" type="line"/>
			<point x="794" y="641" type="line"/>
			<point x="794" y="581" type="line"/>
			<point x="223" y="581" type="line"/>
		</contour>
		<contour>
			<point x="193" y="671" type="line"/>
			<point x="193" y="459" type="line"/>
			<point x="824" y="459" type="line"/>
			<point x="824" y="671" type="line"/>
		</contour>
		<contour>
			<point x="48" y="408" type="line"/>
			<point x="48" y="378" type="line"/>
			<point x="953" y="378" type="line"/>
			<point x="953" y="408" type="line"/>
		</contour>
		<contour>
			<point x="237" y="248" type="line"/>
			<point x="237" y="218" type="line"/>
			<point x="791" y="218" type="line"/>
			<point x="791" y="248" type="line"/>
		</contour>
		<contour>
			<point x="237" y="170" type="line"/>
			<point x="237" y="140" type="line"/>
			<point x="800" y="140" type="line"/>
			<point x="800" y="170" type="line"/>
		</contour>
		<contour>
			<point x="222" y="91" type="line"/>
			<point x="222" y="61" type="line"/>
			<point x="839" y="61" type="line"/>
			<point x="839" y="91" type="line"/>
		</contour>
		<contour>
			<point x="362" y="473" type="line"/>
			<point x="316" y="381"/>
			<point x="203" y="277"/>
			<point x="36" y="212" type="curve"/>
			<point x="43" y="207"/>
			<point x="53" y="198"/>
			<point x="58" y="190" type="curve"/>
			<point x="230" y="260"/>
			<point x="341" y="366"/>
			<point x="396" y="467" type="curve"/>
		</contour>
		<contour>
			<point x="694" y="402" type="curve"/>
			<point x="669" y="390" type="line"/>
			<point x="731" y="310"/>
			<point x="852" y="229"/>
			<point x="952" y="191" type="curve"/>
			<point x="957" y="199"/>
			<point x="966" y="210"/>
			<point x="973" y="216" type="curve"/>
			<point x="872" y="249"/>
			<point x="753" y="325"/>
		</contour>
		<contour>
			<point x="483" y="314" type="line"/>
			<point x="483" y="75" type="line"/>
			<point x="513" y="75" type="line"/>
			<point x="513" y="314" type="line"/>
		</contour>
		<contour>
			<point x="829" y="91" type="line"/>
			<point x="829" y="85" type="line"/>
			<point x="821" y="-2"/>
			<point x="814" y="-36"/>
			<point x="804" y="-46" type="curve"/>
			<point x="798" y="-52"/>
			<point x="792" y="-53"/>
			<point x="780" y="-53" type="curve"/>
			<point x="769" y="-53"/>
			<point x="738" y="-52"/>
			<point x="704" y="-49" type="curve"/>
			<point x="709" y="-57"/>
			<point x="712" y="-70"/>
			<point x="713" y="-78" type="curve"/>
			<point x="741" y="-80"/>
			<point x="771" y="-81"/>
			<point x="785" y="-80" type="curve"/>
			<point x="806" y="-80"/>
			<point x="816" y="-76"/>
			<point x="826" y="-67" type="curve"/>
			<point x="842" y="-52"/>
			<point x="849" y="-17"/>
			<point x="858" y="72" type="curve"/>
			<point x="859" y="79"/>
			<point x="860" y="91"/>
			<point x="860" y="91" type="curve"/>
		</contour>
		<contour>
			<point x="200" y="57" type="line"/>
			<point x="183" y="11"/>
			<point x="151" y="-35"/>
			<point x="105" y="-58" type="curve"/>
			<point x="125" y="-79" type="line"/>
			<point x="177" y="-51"/>
			<point x="208" y="0"/>
			<point x="225" y="46" type="curve"/>
		</contour>
		<contour>
			<point x="335" y="43" type="line"/>
			<point x="348" y="5"/>
			<point x="358" y="-44"/>
			<point x="358" y="-76" type="curve"/>
			<point x="387" y="-70" type="line"/>
			<point x="386" y="-39"/>
			<point x="376" y="11"/>
			<point x="361" y="48" type="curve"/>
		</contour>
		<contour>
			<point x="474" y="42" type="line"/>
			<point x="496" y="10"/>
			<point x="516" y="-34"/>
			<point x="523" y="-64" type="curve"/>
			<point x="551" y="-54" type="line"/>
			<point x="543" y="-25"/>
			<point x="522" y="19"/>
			<point x="499" y="51" type="curve"/>
		</contour>
		<contour>
			<point x="616" y="46" type="line"/>
			<point x="641" y="23"/>
			<point x="668" y="-9"/>
			<point x="681" y="-32" type="curve"/>
			<point x="702" y="-18" type="line"/>
			<point x="690" y="4"/>
			<point x="663" y="36"/>
			<point x="637" y="58" type="curve"/>
		</contour>
		<contour>
			<point x="256" y="325" type="line"/>
			<point x="240" y="295" type="line"/>
			<point x="738" y="295" type="line"/>
			<point x="738" y="325" type="line"/>
		</contour>
		<contour>
			<point x="222" y="302" type="line"/>
			<point x="222" y="78" type="line"/>
			<point x="252" y="78" type="line"/>
			<point x="252" y="325" type="line"/>
		</contour>
	</outline>
</glyph>
<glyph name="c7716" format="1">
	<advance width="1000"/>
	<outline>
		<contour>
			<point x="373" y="801" type="line"/>
			<point x="373" y="519" type="line"/>
			<point x="373" y="473"/>
			<point x="388" y="466"/>
			<point x="444" y="466" type="curve"/>
			<point x="455" y="466"/>
			<point x="563" y="466"/>
			<point x="575" y="466" type="curve"/>
			<point x="620" y="466"/>
			<point x="631" y="485"/>
			<point x="634" y="561" type="curve"/>
			<point x="625" y="564"/>
			<point x="613" y="568"/>
			<point x="605" y="574" type="curve"/>
			<point x="603" y="505"/>
			<point x="598" y="496"/>
			<point x="572" y="496" type="curve"/>
			<point x="550" y="496"/>
			<point x="459" y="496"/>
			<point x="443" y="496" type="curve"/>
			<point x="408" y="496"/>
			<point x="403" y="500"/>
			<point x="403" y="519" type="curve"/>
			<point x="403" y="801" type="line"/>
		</contour>
		<contour>
			<point x="387" y="801" type="line"/>
			<point x="387" y="771" type="line"/>
			<point x="583" y="771" type="line"/>
			<point x="583" y="655" type="line"/>
			<point x="387" y="655" type="line"/>
			<point x="387" y="625" type="line"/>
			<point x="613" y="625" type="line"/>
			<point x="613" y="801" type="line"/>
		</contour>
		<contour>
			<point x="679" y="801" type="line"/>
			<point x="679" y="520" type="line"/>
			<point x="679" y="474"/>
			<point x="695" y="466"/>
			<point x="753" y="466" type="curve"/>
			<point x="765" y="466"/>
			<point x="882" y="466"/>
			<point x="894" y="466" type="curve"/>
			<point x="941" y="466"/>
			<point x="952" y="485"/>
			<point x="955" y="562" type="curve"/>
			<point x="946" y="565"/>
			<point x="934" y="569"/>
			<point x="926" y="575" type="curve"/>
			<point x="923" y="505"/>
			<point x="919" y="496"/>
			<point x="891" y="496" type="curve"/>
			<point x="867" y="496"/>
			<point x="769" y="496"/>
			<point x="752" y="496" type="curve"/>
			<point x="715" y="496"/>
			<point x="709" y="500"/>
			<point x="709" y="520" type="curve"/>
			<point x="709" y="801" type="line"/>
		</contour>
		<contour>
			<point x="693" y="801" type="line"/>
			<point x="693" y="771" type="line"/>
			<point x="895" y="771" type="line"/>
			<point x="895" y="655" type="line"/>
			<point x="693" y="655" type="line"/>
			<point x="693" y="625" type="line"/>
			<point x="925" y="625" type="line"/>
			<point x="925" y="801" type="line"/>
		</contour>
		<contour>
			<point x="370" y="334" type="line"/>
			<point x="370" y="304" type="line"/>
			<point x="924" y="304" type="line"/>
			<point x="924" y="334" type="line"/>
		</contour>
		<contour>
			<point x="316" y="155" type="line"/>
			<point x="316" y="125" type="line"/>
			<point x="960" y="125" type="line"/>
			<point x="960" y="155" type="line"/>
		</contour>
		<contour>
			<point x="508" y="438" type="line"/>
			<point x="508" y="132" type="line"/>
			<point x="538" y="132" type="line"/>
			<point x="538" y="438" type="line"/>
		</contour>
		<contour>
			<point x="744" y="438" type="line"/>
			<point x="744" y="132" type="line"/>
			<point x="774" y="132" type="line"/>
			<point x="774" y="438" type="line"/>
		</contour>
		<contour>
			<point x="514" y="84" type="line"/>
			<point x="466" y="27"/>
			<point x="383" y="-25"/>
			<point x="307" y="-60" type="curve"/>
			<point x="314" y="-66"/>
			<point x="326" y="-78"/>
			<point x="330" y="-84" type="curve"/>
			<point x="405" y="-46"/>
			<point x="492" y="13"/>
			<point x="543" y="75" type="curve"/>
		</contour>
		<contour>
			<point x="723" y="60" type="line"/>
			<point x="800" y="20"/>
			<point x="892" y="-40"/>
			<point x="939" y="-81" type="curve"/>
			<point x="960" y="-58" type="line"/>
			<point x="913" y="-17"/>
			<point x="820" y="41"/>
			<point x="744" y="80" type="curve"/>
		</contour>
		<contour>
			<point x="25" y="294" type="curve"/>
			<point x="38" y="263" type="line"/>
			<point x="121" y="293"/>
			<point x="234" y="334"/>
			<point x="342" y="373" type="curve"/>
			<point x="337" y="404" type="line"/>
			<point x="220" y="362"/>
			<point x="102" y="320"/>
		</contour>
		<contour>
			<point x="38" y="621" type="line"/>
			<point x="38" y="591" type="line"/>
			<point x="345" y="591" type="line"/>
			<point x="345" y="621" type="line"/>
		</contour>
		<contour>
			<point x="186" y="839" type="line"/>
			<point x="186" y="-32" type="line"/>
			<point x="186" y="-47"/>
			<point x="180" y="-51"/>
			<point x="167" y="-51" type="curve"/>
			<point x="155" y="-52"/>
			<point x="112" y="-52"/>
			<point x="60" y="-51" type="curve"/>
			<point x="65" y="-60"/>
			<point x="70" y="-73"/>
			<point x="72" y="-80" type="curve"/>
			<point x="136" y="-81"/>
			<point x="170" y="-80"/>
			<point x="188" y="-75" type="curve"/>
			<point x="207" y="-69"/>
			<point x="216" y="-59"/>
			<point x="216" y="-32" type="curve"/>
			<point x="216" y="839" type="line"/>
		</contour>
	</outline>
</glyph>
